<svg xmlns="http://www.w3.org/2000/svg" xmlns:xlink="http://www.w3.org/1999/xlink" width="500" zoomAndPan="magnify" viewBox="0 0 375 374.999991" height="500" preserveAspectRatio="xMidYMid meet" version="1.0"><defs><g/><clipPath id="4020f3696b"><path d="M 123.027344 265.367188 L 244.527344 265.367188 L 244.527344 319.367188 L 123.027344 319.367188 Z M 123.027344 265.367188 " clip-rule="nonzero"/></clipPath></defs><rect x="-37.5" width="450" fill="#ffffff" y="-37.499999" height="449.999989" fill-opacity="1"/><rect x="-37.5" width="450" fill="#2b2b2b" y="-37.499999" height="449.999989" fill-opacity="1"/><g fill="#fdf7f2" fill-opacity="1"><g transform="translate(56.627606, 277.670228)"><g><path d="M 11.25 0 L 11.25 -254.3125 L 113.09375 -254.3125 L 113.09375 -204.875 L 62.46875 -204.875 L 62.46875 -164.3125 L 110.4375 -164.3125 L 110.4375 -115.46875 L 62.46875 -115.46875 L 62.46875 0 Z M 11.25 0 "/></g></g></g><g fill="#fdf7f2" fill-opacity="1"><g transform="translate(174.757347, 277.670228)"><g><path d="M 4.4375 0 L 29.015625 -254.3125 L 115.171875 -254.3125 L 139.453125 0 L 91.1875 0 L 87.640625 -41.15625 L 56.84375 -41.15625 L 53.890625 0 Z M 60.6875 -81.71875 L 83.78125 -81.71875 L 72.53125 -211.09375 L 70.171875 -211.09375 Z M 60.6875 -81.71875 "/></g></g></g><g clip-path="url(#4020f3696b)"><path fill="#2b2b2b" d="M 244.527344 265.367188 L 244.527344 319.367188 L 123.027344 319.367188 L 123.027344 265.367188 Z M 244.527344 265.367188 " fill-opacity="1" fill-rule="nonzero"/></g><g fill="#fdf7f2" fill-opacity="1"><g transform="translate(114.05964, 301.253173)"><g><path d="M 16.921875 3.875 L 19.671875 2.390625 L 15.03125 -6.171875 L 0.8125 1.515625 L 2.515625 4.640625 L 8.25 1.546875 L 10.765625 6.203125 L 13.53125 4.703125 L 11.015625 0.046875 L 13.984375 -1.5625 Z M 16.921875 3.875 "/></g></g></g><g fill="#fdf7f2" fill-opacity="1"><g transform="translate(127.029465, 321.58723)"><g><path d="M 8.375 7.859375 L 11.140625 10.46875 L 17.96875 -5.3125 L 15.0625 -8.03125 L -0.25 -0.234375 L 2.515625 2.359375 L 5.34375 0.828125 L 9.734375 4.96875 Z M 8.046875 -0.703125 L 13.9375 -3.9375 L 11.078125 2.140625 Z M 8.046875 -0.703125 "/></g></g></g><g fill="#fdf7f2" fill-opacity="1"><g transform="translate(148.401359, 338.661251)"><g><path d="M 14.34375 -11.28125 L 8.078125 -14.09375 L 1.453125 0.65625 L 4.6875 2.109375 L 7.375 -3.859375 L 10.40625 -2.5 C 12.890625 -1.375 15.625 -2.390625 16.734375 -4.859375 C 17.84375 -7.3125 16.828125 -10.15625 14.34375 -11.28125 Z M 11.09375 -5.421875 L 8.578125 -6.546875 L 10.03125 -9.796875 L 12.546875 -8.671875 C 13.578125 -8.203125 14.0625 -7.171875 13.640625 -6.21875 C 13.1875 -5.234375 12.125 -4.953125 11.09375 -5.421875 Z M 11.09375 -5.421875 "/></g></g></g><g fill="#fdf7f2" fill-opacity="1"><g transform="translate(172.652033, 347.376694)"><g><path d="M 10.046875 -15.234375 L 3.203125 -15.9375 L 1.578125 0.15625 L 5.109375 0.515625 L 5.765625 -6 L 9.078125 -5.65625 C 11.78125 -5.390625 14.078125 -7.1875 14.359375 -9.890625 C 14.625 -12.5625 12.75 -14.96875 10.046875 -15.234375 Z M 8.796875 -8.640625 L 6.0625 -8.921875 L 6.421875 -12.46875 L 9.15625 -12.1875 C 10.296875 -12.078125 11.078125 -11.25 10.984375 -10.203125 C 10.875 -9.140625 9.9375 -8.53125 8.796875 -8.640625 Z M 8.796875 -8.640625 "/></g></g></g><g fill="#fdf7f2" fill-opacity="1"><g transform="translate(198.282217, 347.891369)"><g><path d="M 4.40625 -4.125 L 1.796875 -16.875 L -1.671875 -16.15625 L 1.5625 -0.3125 L 10.296875 -2.109375 L 9.671875 -5.203125 Z M 4.40625 -4.125 "/></g></g></g><g fill="#fdf7f2" fill-opacity="1"><g transform="translate(219.951949, 341.634122)"><g><path d="M 1.546875 -0.765625 L 4.734375 -2.34375 L -2.46875 -16.828125 L -5.65625 -15.25 Z M 1.546875 -0.765625 "/></g></g></g><g fill="#fdf7f2" fill-opacity="1"><g transform="translate(236.44878, 332.013108)"><g><path d="M -0.234375 -17.359375 L -2.328125 -19.671875 L -9.546875 -13.15625 L 1.28125 -1.15625 L 8.5 -7.671875 L 6.40625 -9.984375 L 1.828125 -5.84375 L -0.4375 -8.375 L 3.484375 -11.921875 L 1.375 -14.25 L -2.546875 -10.703125 L -4.8125 -13.21875 Z M -0.234375 -17.359375 "/></g></g></g><g fill="#fdf7f2" fill-opacity="1"><g transform="translate(253.684884, 313.965108)"><g><path d="M -0.859375 -12 C -0.40625 -13.9375 -1.3125 -15.984375 -3.234375 -17.078125 C -5.640625 -18.421875 -8.5625 -17.734375 -9.921875 -15.328125 L -13.296875 -9.34375 L 0.78125 -1.390625 L 2.53125 -4.484375 L -2.90625 -7.5625 L -2.203125 -8.8125 L 5.1875 -9.203125 L 7.15625 -12.6875 Z M -4.109375 -11.421875 L -5.46875 -9 L -8.796875 -10.875 L -7.4375 -13.296875 C -6.875 -14.28125 -5.765625 -14.609375 -4.8125 -14.078125 C -3.828125 -13.515625 -3.546875 -12.40625 -4.109375 -11.421875 Z M -4.109375 -11.421875 "/></g></g></g></svg>